<?xml version="1.0" encoding="UTF-8"?>
<svg id="Layer_1" data-name="Layer 1" xmlns="http://www.w3.org/2000/svg" viewBox="0 0 146.22 130.11">
  <defs>
    <style>
      .cls-1 {
        fill: #394c95;
      }

      .cls-1, .cls-2 {
        stroke-width: 0px;
      }

      .cls-2 {
        fill: #384c94;
      }
    </style>
  </defs>
  <path class="cls-2" d="M2.6,92.11v38h141.03v-38H2.6ZM11.84,128.56h-4.06v-34.9h4.06v34.9ZM19.28,128.56h-4.06v-34.9h4.06v34.9ZM26.73,128.56h-4.06v-34.9h4.06v34.9ZM34.18,128.56h-4.06v-34.9h4.06v34.9ZM41.63,128.56h-4.06v-34.9h4.06v34.9ZM49.08,128.56h-4.06v-34.9h4.06v34.9ZM56.52,128.56h-4.06v-34.9h4.06v34.9ZM63.97,128.56h-4.06v-34.9h4.06v34.9ZM71.42,128.56h-4.06v-34.9h4.06v34.9ZM78.87,128.56h-4.06v-34.9h4.06v34.9ZM86.31,128.56h-4.06v-34.9h4.06v34.9ZM93.76,128.56h-4.06v-34.9h4.06v34.9ZM101.21,128.56h-4.06v-34.9h4.06v34.9ZM108.66,128.56h-4.06v-34.9h4.06v34.9ZM116.11,128.56h-4.06v-34.9h4.06v34.9ZM123.55,128.56h-4.06v-34.9h4.06v34.9ZM131,128.56h-4.06v-34.9h4.06v34.9ZM138.45,128.56h-4.06v-34.9h4.06v34.9Z"/>
  <g>
    <path class="cls-2" d="M0,59.11v28.44h70.22v-28.44H0ZM7.35,86.39H3.29v-26.12h4.06v26.12ZM14.8,86.39h-4.06v-26.12h4.06v26.12ZM22.25,86.39h-4.06v-26.12h4.06v26.12ZM29.69,86.39h-4.06v-26.12h4.06v26.12ZM37.14,86.39h-4.06v-26.12h4.06v26.12ZM44.59,86.39h-4.06v-26.12h4.06v26.12ZM52.04,86.39h-4.06v-26.12h4.06v26.12ZM59.49,86.39h-4.06v-26.12h4.06v26.12ZM66.93,86.39h-4.06v-26.12h4.06v26.12Z"/>
    <path class="cls-2" d="M76,59.11v28.44h70.22v-28.44h-70.22ZM83.35,86.39h-4.06v-26.12h4.06v26.12ZM90.8,86.39h-4.06v-26.12h4.06v26.12ZM98.25,86.39h-4.06v-26.12h4.06v26.12ZM105.69,86.39h-4.06v-26.12h4.06v26.12ZM113.14,86.39h-4.06v-26.12h4.06v26.12ZM120.59,86.39h-4.06v-26.12h4.06v26.12ZM128.04,86.39h-4.06v-26.12h4.06v26.12ZM135.49,86.39h-4.06v-26.12h4.06v26.12ZM142.93,86.39h-4.06v-26.12h4.06v26.12Z"/>
  </g>
  <path class="cls-1" d="M55.35,45.89c3.57-6.05,6.96-11.81,10.71-18.19-4.46,0-8.31-.05-12.15.01-7.53.11-14.65-1.67-21.12-5.4-2.04-1.18-3.9-3.47-4.78-5.67-2.04-5.14-3.44-10.53-5.16-16.01,3.09-1.09,5.5-.86,7.64,1.44,3.39,3.65,6.97,7.13,10.32,10.81,1.9,2.09,4,3.03,6.87,2.93,14.44-.5,28.88.12,43.24-2.73,9.24-1.84,18.58-.4,27.3,3.97h-9.32c-.14.28-.28.56-.42.84,1.16.54,2.29,1.46,3.49,1.57,2.7.23,5.45-.04,8.17.13,1.1.07,2.16.77,3.24,1.18-.49,1.22-.69,3.23-1.51,3.52-3.84,1.38-7.8,2.93-11.81,3.24-6.84.52-13.76.05-20.64.25-1.62.04-3.49.7-4.76,1.69-5.24,4.08-10.57,8.11-15.33,12.72-3.94,3.82-8.22,4.78-13.99,3.7h.01Z"/>
</svg>