<?xml version="1.0" encoding="UTF-8"?>
<svg id="Layer_1" data-name="Layer 1" xmlns="http://www.w3.org/2000/svg" viewBox="0 0 146.22 170">
  <defs>
    <style>
      .cls-1 {
        stroke: #a5a5a8;
        stroke-miterlimit: 10;
      }

      .cls-1, .cls-2 {
        fill: #384c94;
      }

      .cls-2 {
        stroke-width: 0px;
      }
    </style>
  </defs>
  <path class="cls-2" d="M2.6,65.56v28.44h141.03v-28.44H2.6ZM11.84,92.84h-4.06v-26.12h4.06v26.12ZM19.28,92.84h-4.06v-26.12h4.06v26.12ZM26.73,92.84h-4.06v-26.12h4.06v26.12ZM34.18,92.84h-4.06v-26.12h4.06v26.12ZM41.63,92.84h-4.06v-26.12h4.06v26.12ZM49.08,92.84h-4.06v-26.12h4.06v26.12ZM56.52,92.84h-4.06v-26.12h4.06v26.12ZM63.97,92.84h-4.06v-26.12h4.06v26.12ZM71.42,92.84h-4.06v-26.12h4.06v26.12ZM78.87,92.84h-4.06v-26.12h4.06v26.12ZM86.31,92.84h-4.06v-26.12h4.06v26.12ZM93.76,92.84h-4.06v-26.12h4.06v26.12ZM101.21,92.84h-4.06v-26.12h4.06v26.12ZM108.66,92.84h-4.06v-26.12h4.06v26.12ZM116.11,92.84h-4.06v-26.12h4.06v26.12ZM123.55,92.84h-4.06v-26.12h4.06v26.12ZM131,92.84h-4.06v-26.12h4.06v26.12ZM138.45,92.84h-4.06v-26.12h4.06v26.12Z"/>
  <path class="cls-2" d="M2.6,132v38h141.03v-38H2.6ZM11.84,168.45h-4.06v-34.9h4.06v34.9ZM19.28,168.45h-4.06v-34.9h4.06v34.9ZM26.73,168.45h-4.06v-34.9h4.06v34.9ZM34.18,168.45h-4.06v-34.9h4.06v34.9ZM41.63,168.45h-4.06v-34.9h4.06v34.9ZM49.08,168.45h-4.06v-34.9h4.06v34.9ZM56.52,168.45h-4.06v-34.9h4.06v34.9ZM63.97,168.45h-4.06v-34.9h4.06v34.9ZM71.42,168.45h-4.06v-34.9h4.06v34.9ZM78.87,168.45h-4.06v-34.9h4.06v34.9ZM86.31,168.45h-4.06v-34.9h4.06v34.9ZM93.76,168.45h-4.06v-34.9h4.06v34.9ZM101.21,168.45h-4.06v-34.9h4.06v34.9ZM108.66,168.45h-4.06v-34.9h4.06v34.9ZM116.11,168.45h-4.06v-34.9h4.06v34.9ZM123.55,168.45h-4.06v-34.9h4.06v34.9ZM131,168.45h-4.06v-34.9h4.06v34.9ZM138.45,168.45h-4.06v-34.9h4.06v34.9Z"/>
  <g>
    <rect class="cls-1" x="2.6" y="32.56" width="141.03" height="28.44"/>
    <g>
      <rect class="cls-1" x="7.77" y="33.72" width="4.06" height="26.12"/>
      <rect class="cls-1" x="15.22" y="33.72" width="4.06" height="26.12"/>
      <rect class="cls-1" x="22.67" y="33.72" width="4.06" height="26.12"/>
      <rect class="cls-1" x="30.12" y="33.72" width="4.06" height="26.12"/>
      <rect class="cls-1" x="37.56" y="33.72" width="4.06" height="26.12"/>
      <rect class="cls-1" x="45.01" y="33.72" width="4.06" height="26.12"/>
      <rect class="cls-1" x="52.46" y="33.72" width="4.06" height="26.12"/>
      <rect class="cls-1" x="59.91" y="33.72" width="4.06" height="26.12"/>
      <rect class="cls-1" x="67.36" y="33.72" width="4.06" height="26.12"/>
      <rect class="cls-1" x="74.8" y="33.72" width="4.06" height="26.12"/>
      <rect class="cls-1" x="82.25" y="33.72" width="4.06" height="26.12"/>
      <rect class="cls-1" x="89.7" y="33.72" width="4.06" height="26.12"/>
      <rect class="cls-1" x="97.15" y="33.72" width="4.06" height="26.12"/>
      <rect class="cls-1" x="104.6" y="33.72" width="4.06" height="26.12"/>
      <rect class="cls-1" x="112.04" y="33.72" width="4.06" height="26.12"/>
      <rect class="cls-1" x="119.49" y="33.72" width="4.06" height="26.12"/>
      <rect class="cls-1" x="126.94" y="33.72" width="4.06" height="26.12"/>
      <rect class="cls-1" x="134.39" y="33.72" width="4.06" height="26.12"/>
    </g>
  </g>
  <g>
    <path class="cls-2" d="M0,99v28.44h70.22v-28.44H0ZM7.35,126.28H3.29v-26.12h4.06v26.12ZM14.8,126.28h-4.06v-26.12h4.06v26.12ZM22.25,126.28h-4.06v-26.12h4.06v26.12ZM29.69,126.28h-4.06v-26.12h4.06v26.12ZM37.14,126.28h-4.06v-26.12h4.06v26.12ZM44.59,126.28h-4.06v-26.12h4.06v26.12ZM52.04,126.28h-4.06v-26.12h4.06v26.12ZM59.49,126.28h-4.06v-26.12h4.06v26.12ZM66.93,126.28h-4.06v-26.12h4.06v26.12Z"/>
    <path class="cls-2" d="M76,99v28.44h70.22v-28.44h-70.22ZM83.35,126.28h-4.06v-26.12h4.06v26.12ZM90.8,126.28h-4.06v-26.12h4.06v26.12ZM98.25,126.28h-4.06v-26.12h4.06v26.12ZM105.69,126.28h-4.06v-26.12h4.06v26.12ZM113.14,126.28h-4.06v-26.12h4.06v26.12ZM120.59,126.28h-4.06v-26.12h4.06v26.12ZM128.04,126.28h-4.06v-26.12h4.06v26.12ZM135.49,126.28h-4.06v-26.12h4.06v26.12ZM142.93,126.28h-4.06v-26.12h4.06v26.12Z"/>
  </g>
  <polygon class="cls-2" points="105 0 105 26.28 41.23 26.28 41.23 0 38 0 38 28.44 108.22 28.44 108.22 0 105 0"/>
</svg>